<?xml version="1.0" standalone="no"?>
<!DOCTYPE svg PUBLIC "-//W3C//DTD SVG 20010904//EN"
 "http://www.w3.org/TR/2001/REC-SVG-20010904/DTD/svg10.dtd">
<svg version="1.0" xmlns="http://www.w3.org/2000/svg"
 width="700.000000pt" height="700.000000pt" viewBox="0 0 700.000000 700.000000"
 preserveAspectRatio="xMidYMid meet">
<metadata>
Created by potrace 1.11, written by Peter Selinger 2001-2013
</metadata>
<g transform="translate(0.000000,700.000000) scale(0.100000,-0.100000)"
fill="#000000" stroke="none">
<path d="M3298 6996 c-1 -2 -41 -6 -88 -10 -100 -7 -225 -22 -295 -36 -27 -5
-61 -12 -75 -14 -191 -35 -488 -121 -627 -182 -18 -8 -48 -21 -67 -29 -19 -8
-37 -15 -41 -15 -17 0 -317 -158 -422 -222 -134 -81 -319 -212 -394 -278 -10
-8 -42 -35 -73 -60 -61 -50 -308 -298 -374 -375 -119 -139 -278 -363 -369
-520 -161 -277 -319 -671 -379 -948 -20 -90 -53 -272 -59 -322 -4 -33 -9 -69
-11 -80 -19 -99 -26 -567 -11 -715 9 -81 25 -209 33 -250 2 -14 7 -41 10 -60
29 -180 115 -479 196 -680 52 -129 168 -369 213 -439 14 -23 25 -43 25 -46 0
-14 207 -310 286 -409 133 -165 304 -339 504 -510 50 -43 187 -144 265 -196
44 -29 92 -61 107 -71 83 -58 366 -203 513 -264 251 -105 640 -210 855 -231
36 -3 68 -8 71 -10 15 -9 235 -19 419 -19 186 0 325 7 420 21 569 83 1010 244
1475 539 56 36 261 185 314 230 736 614 1188 1473 1269 2410 14 164 7 566 -13
705 -3 19 -7 56 -10 81 -3 25 -7 54 -9 65 -2 10 -11 60 -21 109 -94 507 -321
1016 -638 1435 -194 255 -442 506 -682 687 -414 312 -898 533 -1393 638 -95
20 -194 35 -392 61 -48 6 -526 15 -532 10z m326 -317 c32 -6 66 -14 75 -19 9
-4 43 -21 76 -36 110 -53 226 -150 348 -293 109 -127 289 -452 381 -690 64
-164 184 -547 174 -556 -2 -2 -64 4 -138 15 -155 22 -188 26 -383 46 -21 2
-84 6 -140 10 -56 3 -131 8 -167 10 -79 5 -649 5 -705 -1 -22 -2 -92 -6 -155
-9 -63 -4 -131 -8 -150 -11 -19 -2 -62 -7 -95 -10 -33 -3 -76 -8 -95 -10 -76
-9 -197 -26 -216 -29 -68 -12 -114 -16 -114 -10 0 4 9 42 21 83 110 402 266
768 434 1020 208 313 434 478 690 504 36 4 80 0 159 -14z m-981 -161 c-191
-236 -351 -536 -490 -918 -31 -86 -46 -131 -73 -225 -5 -16 -28 -104 -52 -195
l-44 -164 -109 -28 c-602 -153 -1055 -358 -1392 -631 -40 -32 -73 -56 -73 -54
0 11 63 210 91 287 111 305 292 629 488 875 86 108 92 115 156 184 348 378
779 670 1235 838 86 32 293 99 313 102 5 1 -18 -32 -50 -71z m1977 -31 c299
-110 607 -286 870 -496 163 -130 356 -319 460 -450 19 -24 47 -58 61 -75 53
-65 147 -202 237 -345 70 -114 180 -344 243 -514 38 -99 98 -297 91 -297 -3 0
-35 24 -71 53 -186 149 -435 293 -676 391 -49 21 -103 43 -120 50 -97 43 -418
142 -603 187 -98 24 -104 28 -116 92 -18 93 -103 389 -146 507 -18 47 -35 96
-40 110 -4 14 -16 43 -25 65 -9 22 -24 58 -33 80 -106 253 -302 579 -429 713
-7 7 -13 17 -13 21 0 10 178 -43 310 -92z m-690 -1631 c25 -2 86 -7 135 -10
50 -4 124 -11 165 -16 41 -5 96 -12 123 -15 84 -9 131 -15 157 -20 14 -2 68
-11 120 -20 52 -9 102 -18 111 -21 11 -3 20 -35 34 -122 10 -64 20 -121 21
-127 3 -16 13 -87 18 -135 3 -25 10 -88 16 -140 6 -52 12 -120 14 -150 3 -30
8 -109 12 -175 10 -152 11 -666 1 -810 -5 -60 -10 -141 -13 -180 -2 -38 -6
-86 -9 -105 -5 -37 -10 -79 -20 -170 -10 -82 -15 -121 -20 -149 -29 -177 -37
-218 -41 -232 -3 -11 -35 -20 -122 -34 -64 -11 -119 -20 -122 -20 -10 -2 -126
-18 -150 -20 -14 -2 -45 -5 -70 -8 -120 -15 -173 -19 -385 -33 -154 -11 -665
-11 -815 0 -224 15 -251 17 -400 36 -41 5 -93 11 -115 14 -73 8 -320 48 -324
52 -6 6 -6 6 -31 159 -22 135 -26 157 -35 240 -4 28 -8 61 -10 75 -6 36 -16
140 -20 207 -2 32 -7 103 -11 158 -21 275 -7 865 26 1140 5 44 12 103 15 130
10 93 16 131 43 295 l18 105 129 21 c72 13 153 25 180 28 28 4 73 9 100 12 28
4 57 8 65 9 41 8 201 20 375 30 66 4 121 8 123 10 4 4 662 -4 712 -9z m-2016
-223 c-3 -27 -7 -55 -9 -63 -1 -8 -6 -40 -10 -70 -4 -30 -9 -63 -11 -74 -3
-18 -9 -68 -19 -176 -3 -30 -8 -73 -10 -95 -3 -22 -7 -83 -10 -135 -3 -52 -8
-117 -10 -145 -6 -64 -6 -699 -1 -745 3 -19 7 -87 11 -150 3 -63 8 -126 10
-140 2 -14 7 -59 10 -100 9 -96 21 -187 30 -240 1 -8 6 -40 10 -70 3 -30 9
-67 11 -82 2 -16 0 -28 -4 -28 -22 0 -407 118 -457 139 -11 5 -36 14 -55 21
-19 7 -48 18 -65 25 -16 7 -59 25 -95 40 -275 114 -559 299 -715 467 -209 225
-269 477 -170 719 72 178 253 368 500 523 91 58 294 163 395 205 30 13 69 29
85 36 115 50 513 176 578 184 4 1 5 -20 1 -46z m3301 12 c215 -58 451 -144
655 -242 383 -182 633 -391 754 -629 51 -99 68 -173 68 -279 -3 -446 -545
-871 -1440 -1131 -84 -24 -157 -44 -162 -44 -10 0 -8 23 15 180 20 138 23 163
35 290 9 104 13 158 25 345 5 78 6 644 1 715 -2 30 -7 107 -11 170 -3 63 -8
126 -10 140 -2 14 -7 57 -10 95 -3 39 -8 81 -10 95 -2 14 -7 50 -10 80 -6 50
-14 109 -30 213 -6 34 -4 38 12 34 10 -3 63 -18 118 -32z m-4709 -2021 c33
-27 69 -55 80 -61 10 -7 44 -30 74 -51 145 -100 486 -272 640 -322 14 -5 70
-25 125 -45 102 -37 297 -94 464 -136 97 -25 103 -30 115 -92 60 -316 266
-860 427 -1125 21 -35 39 -66 39 -68 0 -14 163 -235 207 -282 24 -25 13 -30
-34 -15 -27 8 -55 16 -63 18 -21 4 -141 45 -165 55 -11 5 -45 18 -75 28 -194
70 -471 220 -684 370 -553 389 -1003 1004 -1196 1637 -50 164 -51 169 -32 153
9 -8 44 -37 78 -64z m6049 -39 c-81 -269 -177 -486 -324 -730 -69 -116 -166
-256 -235 -340 -23 -27 -50 -61 -61 -74 -183 -226 -478 -480 -750 -649 -238
-147 -528 -280 -748 -342 -40 -11 -87 -24 -105 -29 l-32 -10 58 72 c258 317
477 792 615 1336 l42 164 65 18 c36 10 76 21 90 24 28 5 127 32 235 64 413
120 863 345 1120 559 33 28 61 50 62 49 1 -1 -13 -52 -32 -112z m-4061 -690
c59 -9 131 -18 160 -20 28 -3 71 -7 96 -10 67 -8 135 -13 235 -21 50 -3 113
-8 140 -10 66 -4 702 -4 737 0 15 2 78 7 140 10 62 4 151 11 198 16 47 5 117
12 155 15 39 4 77 8 85 10 8 2 40 7 70 10 30 3 62 8 70 10 35 10 100 14 100 7
0 -4 -15 -62 -34 -128 -235 -823 -598 -1352 -1002 -1459 -95 -25 -227 -21
-320 10 -368 124 -674 549 -918 1275 -20 60 -86 292 -86 303 0 4 15 5 33 3 17
-3 81 -13 141 -21z"/>
</g>
</svg>
