<svg width="622" height="325" viewBox="0 0 622 325" fill="none" xmlns="http://www.w3.org/2000/svg">
  <path d="M96.7738 190.337C95.8474 190.337 94.6233 189.866 93.0683 188.923L8.8005 130.646C6.48454 129.098 4.79721 127.515 3.70541 125.933C2.6136 124.384 2.08423 122.499 2.08423 120.277V112.769C2.08423 110.581 2.58051 108.763 3.57306 107.349C4.56561 105.935 6.31913 104.386 8.76742 102.636L93.0683 44.3586C94.5902 43.416 95.8474 42.9446 96.7738 42.9446C98.1634 42.9446 99.3213 43.3823 100.248 44.224C101.174 45.0993 101.637 46.3113 101.637 47.86V74.4566C101.637 76.8133 101.075 78.665 99.9169 79.978C98.7589 81.3246 97.1708 82.604 95.1857 83.8496L45.9882 116.506L95.1857 149.399C97.3362 150.981 98.9574 152.328 100.049 153.506C101.141 154.684 101.67 156.368 101.67 158.556V185.355C101.67 186.769 101.207 187.947 100.281 188.89C99.3213 189.866 98.1634 190.337 96.7738 190.337Z" fill="black"/>
  <path d="M164.598 113.51C165.326 113.51 166.021 113.51 166.749 113.51C168.072 113.51 169.363 113.51 170.686 113.51C170.719 106.676 170.785 101.356 170.918 97.5183C171.215 87.351 173.763 79.776 178.527 74.827C183.291 69.878 189.776 67.4203 197.915 67.4203C205.922 67.4203 212.307 69.878 217.071 74.827C221.836 79.776 224.383 87.3173 224.681 97.5183C224.912 104.285 225.078 109.638 225.111 113.51C240.032 113.544 254.987 113.611 269.908 113.779C269.842 109.47 269.71 103.814 269.478 96.8113C268.849 76.14 262.133 60.182 249.263 48.971C236.393 37.76 219.288 32.1713 197.882 32.1713C176.31 32.1713 159.106 37.76 146.269 48.971C133.399 60.182 126.683 76.1063 126.054 96.8113C125.922 100.75 125.856 106.406 125.823 113.779C138.792 113.611 151.695 113.544 164.598 113.51Z" fill="black"/>
  <path d="M225.045 126.135C224.979 128.997 224.879 132.296 224.747 136.033C224.449 146.234 221.902 153.775 217.137 158.724C212.373 163.673 205.988 166.131 197.981 166.131C189.809 166.131 183.358 163.673 178.593 158.724C173.829 153.775 171.281 146.234 170.984 136.033C170.884 133.407 170.818 130.108 170.785 126.169C154.309 126.135 138.693 126.034 125.955 125.899C125.988 130.747 126.054 134.585 126.153 137.447C126.914 158.455 133.631 174.346 146.236 185.153C158.875 195.96 176.112 201.38 197.981 201.38C219.85 201.38 237.055 195.96 249.594 185.153C262.133 174.346 268.816 158.455 269.577 137.447C269.743 133.07 269.842 129.199 269.908 125.832C257.898 125.967 242.15 126.101 225.045 126.135Z" fill="#DD6900"/>
  <path d="M292.174 160.004C304.813 144.652 316.194 130.781 326.351 118.392C332.373 110.884 337.203 104.925 340.909 100.515C344.614 96.138 348.022 91.9634 351.198 88.058C354.341 84.1527 357.087 80.8197 359.403 78.059C361.719 75.332 363.109 73.6487 363.572 73.009C364.035 72.3694 364.135 71.8307 363.903 71.3594C363.671 70.888 363.241 70.6524 362.646 70.6524H296.806C295.119 70.6524 293.73 70.1137 292.638 69.0027C291.546 67.8917 291.017 66.5114 291.017 64.7607V54.8964C291.017 52.2367 291.546 49.678 292.638 47.254C293.73 44.83 295.152 42.6754 296.906 40.79C298.659 38.9047 300.777 37.3897 303.258 36.2114C305.706 35.033 308.353 34.4607 311.099 34.4607H413.895C415.747 34.4607 417.17 35.033 418.163 36.2114C419.155 37.3897 419.651 38.8374 419.651 40.5544V64.0537C419.651 67.0164 418.725 69.7097 416.872 72.0327C404.399 87.6877 393.249 101.895 383.39 114.587C377.369 122.095 372.604 128.088 369.064 132.565C365.524 137.043 362.249 141.184 359.238 145.022C356.227 148.86 353.647 152.126 351.496 154.785C349.346 157.445 348.121 159.027 347.791 159.499C347.493 159.97 347.493 160.441 347.791 160.913C348.088 161.384 348.419 161.62 348.717 161.62H416.608C418.295 161.62 419.684 162.158 420.776 163.269C421.868 164.38 422.397 165.761 422.397 167.511V192.425C422.397 194.142 421.868 195.556 420.776 196.667C419.684 197.778 418.328 198.316 416.608 198.316H294.656C292.969 198.316 291.546 197.744 290.388 196.566C289.23 195.387 288.667 193.94 288.667 192.223V168.252C288.667 166.064 288.965 164.582 289.594 163.774C289.892 163.135 290.256 162.562 290.62 162.024C291.05 161.451 291.546 160.812 292.174 160.004Z" fill="black"/>
  <path d="M446.45 193.165V55.6707C446.45 49.7117 448.436 44.83 452.472 40.992C456.475 37.154 461.173 35.235 466.566 35.235H485.028C486.88 35.235 488.27 35.7737 489.196 36.8847C490.255 37.9957 490.818 39.4097 490.818 41.1267V193.199C490.818 194.916 490.288 196.33 489.196 197.441C488.27 198.552 486.88 199.091 485.028 199.091H452.24C450.553 199.091 449.163 198.552 448.072 197.441C447.013 196.296 446.45 194.882 446.45 193.165Z" fill="black"/>
  <path d="M525.226 190.337C523.836 190.337 522.678 189.866 521.752 188.923C520.825 187.981 520.362 186.802 520.362 185.388V158.59C520.362 156.401 520.892 154.718 521.983 153.54C523.042 152.361 524.663 150.981 526.847 149.432L576.045 116.54L526.847 83.8833C524.829 82.6377 523.274 81.3247 522.116 80.0117C520.958 78.6987 520.395 76.847 520.395 74.4903V47.9274C520.395 46.3787 520.859 45.133 521.785 44.2914C522.711 43.416 523.869 43.012 525.259 43.012C526.185 43.012 527.409 43.4834 528.964 44.426L613.265 102.703C615.714 104.42 617.467 106.002 618.46 107.416C619.452 108.83 619.948 110.615 619.948 112.837V120.344C619.948 122.533 619.419 124.418 618.327 126C617.235 127.583 615.548 129.131 613.232 130.714L528.898 188.923C527.376 189.866 526.152 190.337 525.226 190.337Z" fill="black"/>
  <path d="M173.796 231.949V237.706H169.296C166.914 244.709 164.565 251.678 162.282 258.647C159.966 265.616 157.65 272.585 155.334 279.588H147.295C146.004 275.413 144.747 271.306 143.457 267.198C142.167 263.091 140.909 258.984 139.619 254.809L131.315 279.588H123.275L110.339 237.706H105.641V231.949H116.327L127.278 269.488C128.701 265.01 130.124 260.566 131.579 256.122C133.035 251.678 134.491 247.234 135.947 242.756L132.704 231.949H140.347L151.298 269.488L163.374 231.949H173.796V231.949Z" fill="#DD6900"/>
  <path d="M190.57 280.362C188.618 280.362 186.666 280.093 184.681 279.588C182.663 279.083 180.843 278.14 179.189 276.827C177.535 275.514 176.178 273.73 175.119 271.508C174.061 269.286 173.531 266.491 173.531 263.091V257.704C173.531 254.304 174.028 251.577 175.053 249.523C176.079 247.47 177.369 245.887 178.99 244.743C180.611 243.632 182.365 242.891 184.35 242.554C186.302 242.218 188.221 242.049 190.041 242.049C191.827 242.049 193.647 242.251 195.434 242.655C197.22 243.059 198.808 243.8 200.231 244.911C201.654 246.022 202.778 247.537 203.639 249.49C204.499 251.442 204.929 253.967 204.929 257.098C204.929 258.176 204.896 259.253 204.83 260.398C204.764 261.509 204.631 262.451 204.466 263.226H180.578C180.578 265.347 180.909 267.097 181.538 268.545C182.166 269.993 182.994 271.104 183.953 271.979C184.913 272.821 185.971 273.427 187.096 273.797C188.221 274.167 189.247 274.336 190.239 274.336C192.919 274.336 195.136 274.235 196.856 273.999C198.61 273.763 200.198 273.494 201.654 273.191L203.573 278.106C201.951 278.881 199.999 279.453 197.75 279.823C195.4 280.16 193.018 280.362 190.57 280.362ZM189.644 247.571C188.552 247.571 187.46 247.672 186.401 247.874C185.343 248.076 184.383 248.547 183.556 249.288C182.729 250.028 182.034 251.106 181.505 252.52C180.975 253.934 180.678 255.819 180.645 258.209H197.419C197.65 257.906 197.783 257.57 197.816 257.199C197.849 256.829 197.882 256.358 197.882 255.718C197.849 254.237 197.584 252.991 197.088 251.947C196.592 250.904 195.996 250.096 195.235 249.422C194.474 248.783 193.614 248.311 192.654 248.008C191.695 247.739 190.702 247.571 189.644 247.571Z" fill="#DD6900"/>
  <path d="M221.703 227.909V244.44C222.232 243.935 223.225 243.43 224.714 242.891C226.203 242.352 228.221 242.083 230.802 242.083C232.621 242.083 234.375 242.319 236.161 242.79C237.915 243.261 239.503 244.103 240.892 245.349C242.282 246.594 243.374 248.278 244.234 250.432C245.061 252.587 245.491 255.314 245.491 258.613V264.135C245.491 267.535 245.061 270.296 244.201 272.417C243.341 274.538 242.216 276.187 240.793 277.366C239.371 278.544 237.816 279.318 236.029 279.756C234.275 280.194 232.489 280.396 230.669 280.396C227.89 280.396 225.74 280.194 224.185 279.756C222.63 279.318 221.24 278.813 220.049 278.241C219.751 279.15 219.354 279.823 218.891 280.328C218.428 280.833 217.965 281.17 217.534 281.406L213.035 279.857C213.266 279.419 213.531 278.477 213.862 277.096C214.193 275.716 214.358 273.763 214.358 271.272V233.599H209.528V227.943H221.703V227.909ZM221.703 268.343C221.703 269.925 221.637 271.306 221.505 272.585C221.935 272.821 222.431 273.056 222.927 273.292C223.424 273.528 223.986 273.763 224.615 273.965C225.243 274.167 225.938 274.336 226.765 274.437C227.592 274.538 228.552 274.605 229.644 274.605C230.868 274.605 232.026 274.47 233.084 274.167C234.143 273.864 235.036 273.292 235.83 272.45C236.591 271.609 237.22 270.397 237.65 268.814C238.08 267.232 238.312 265.212 238.312 262.721V259.893C238.312 257.435 238.047 255.415 237.551 253.9C237.055 252.351 236.393 251.139 235.566 250.264C234.739 249.389 233.812 248.816 232.72 248.513C231.629 248.21 230.537 248.076 229.379 248.076C227.824 248.076 226.401 248.278 225.045 248.682C223.688 249.086 222.596 249.591 221.703 250.163V268.343V268.343Z" fill="#DD6900"/>
  <path d="M270.669 237.706V231.949H304.449V241.208H298.659V237.706H282.878V252.486H298.064V258.378H282.878V273.831H299.255V270.329H305.045V279.588H272.191V273.831H275.235V237.706H270.669V237.706Z" fill="#DD6900"/>
  <path d="M347.658 242.689V248.48C346.997 248.48 346.302 248.547 345.607 248.648C344.912 248.749 344.118 249.052 343.291 249.557L341.107 252.183C339.817 253.698 338.593 255.213 337.369 256.728C336.145 258.243 334.92 259.724 333.63 261.206L344.184 273.898H347.625V279.655H339.519L328.965 266.828L318.477 279.655H310.504V273.898C311.397 273.898 312.158 273.797 312.787 273.629C313.415 273.46 314.176 273.056 315.003 272.417L324.3 261.206L313.812 248.513H310.504V242.723H318.411C320.231 244.877 321.984 247.032 323.705 249.187C325.425 251.341 327.179 253.53 328.998 255.651L339.619 242.689H347.658V242.689Z" fill="#DD6900"/>
  <path d="M364.002 291.506C362.811 291.91 361.62 292.314 360.363 292.684C359.139 293.054 357.915 293.458 356.724 293.862V251.644C356.724 250.298 356.558 249.355 356.194 248.816C355.83 248.278 355.301 248.008 354.54 248.008C353.614 248.008 352.72 248.177 351.893 248.48L351.298 243.968C352.224 243.632 353.084 243.295 353.845 243.026C354.606 242.756 355.433 242.622 356.327 242.622C357.551 242.622 358.576 242.824 359.403 243.228C360.231 243.632 360.925 244.305 361.554 245.214C362.778 244.372 364.3 243.632 366.087 243.026C367.873 242.42 370.189 242.083 373.035 242.083C374.854 242.083 376.641 242.319 378.427 242.756C380.214 243.194 381.802 244.069 383.192 245.315C384.581 246.561 385.706 248.278 386.566 250.432C387.427 252.587 387.857 255.415 387.857 258.849V264.471C387.857 267.771 387.427 270.464 386.566 272.518C385.706 274.571 384.581 276.187 383.192 277.332C381.802 278.51 380.247 279.285 378.494 279.722C376.74 280.16 374.987 280.362 373.167 280.362C370.586 280.362 368.568 280.194 367.178 279.823C365.756 279.453 364.73 279.049 364.002 278.544V291.506V291.506ZM364.002 272.753C364.896 273.157 365.855 273.528 366.98 273.831C368.072 274.134 369.66 274.302 371.744 274.302C372.935 274.302 374.06 274.167 375.152 273.898C376.244 273.629 377.17 273.09 377.997 272.282C378.824 271.474 379.453 270.329 379.949 268.814C380.446 267.299 380.677 265.313 380.677 262.822V259.994C380.677 257.502 380.446 255.449 379.982 253.9C379.519 252.318 378.891 251.106 378.097 250.197C377.303 249.288 376.376 248.682 375.351 248.345C374.325 248.008 373.2 247.84 372.009 247.84C370.322 247.84 368.8 248.109 367.41 248.614C366.02 249.119 364.896 249.692 364.002 250.331V272.753V272.753Z" fill="#DD6900"/>
  <path d="M411.314 280.362C409.362 280.362 407.41 280.093 405.425 279.588C403.407 279.083 401.587 278.14 399.933 276.827C398.278 275.514 396.922 273.73 395.863 271.508C394.805 269.286 394.275 266.491 394.275 263.091V257.704C394.275 254.304 394.771 251.577 395.797 249.523C396.823 247.47 398.113 245.887 399.734 244.743C401.355 243.632 403.109 242.891 405.094 242.554C407.046 242.218 408.965 242.049 410.785 242.049C412.604 242.049 414.391 242.251 416.178 242.655C417.964 243.059 419.552 243.8 420.975 244.911C422.398 246.022 423.522 247.537 424.383 249.49C425.243 251.442 425.673 253.967 425.673 257.098C425.673 258.176 425.64 259.253 425.574 260.398C425.508 261.509 425.375 262.451 425.21 263.226H401.322C401.322 265.347 401.653 267.097 402.282 268.545C402.91 269.993 403.738 271.104 404.697 271.979C405.656 272.821 406.715 273.427 407.84 273.797C408.965 274.167 409.991 274.336 410.983 274.336C413.663 274.336 415.88 274.235 417.6 273.999C419.354 273.763 420.942 273.494 422.398 273.191L424.316 278.106C422.695 278.881 420.743 279.453 418.494 279.823C416.144 280.16 413.795 280.362 411.314 280.362ZM410.388 247.571C409.296 247.571 408.204 247.672 407.145 247.874C406.087 248.076 405.127 248.547 404.3 249.288C403.473 250.028 402.778 251.106 402.249 252.52C401.719 253.934 401.422 255.819 401.388 258.209H418.163C418.394 257.906 418.527 257.57 418.56 257.199C418.593 256.829 418.626 256.358 418.626 255.718C418.593 254.237 418.328 252.991 417.832 251.947C417.336 250.904 416.74 250.096 415.979 249.422C415.218 248.783 414.358 248.311 413.398 248.008C412.472 247.739 411.446 247.571 410.388 247.571Z" fill="#DD6900"/>
  <path d="M453.928 250.937L448.833 251.341L448.502 248.581C447.675 248.581 446.748 248.648 445.723 248.749C444.697 248.85 443.77 249.086 442.877 249.422C441.984 249.759 441.256 250.23 440.661 250.836C440.065 251.442 439.767 252.25 439.767 253.227V279.621H432.455V249.826L428.088 250.163L427.89 244.911C429.213 244.406 430.636 244.002 432.158 243.699C433.68 243.396 435.235 243.127 436.889 242.891V246.392C438.047 245.079 439.37 244.069 440.958 243.261C442.513 242.487 444.531 242.083 446.98 242.083C448.038 242.083 449.13 242.15 450.288 242.251C451.446 242.352 452.637 242.554 453.928 242.824V250.937Z" fill="#DD6900"/>
  <path d="M470.172 231.209V242.487H477.815V248.446H470.106V270.868C470.106 273.191 470.867 274.369 472.356 274.369C473.018 274.369 473.712 274.302 474.473 274.167C475.234 274.033 476.161 273.864 477.319 273.629L478.047 278.948C477.021 279.184 475.863 279.419 474.506 279.722C473.15 280.025 471.827 280.16 470.437 280.16C467.79 280.16 465.871 279.116 464.68 276.995C463.456 274.908 462.86 272.046 462.86 268.478V248.48H457.004L457.534 242.521H462.166C462.563 241.612 462.894 240.366 463.158 238.75C463.423 237.134 463.555 234.845 463.555 231.916L470.172 231.209Z" fill="#DD6900"/>
  <path d="M506.268 252.688V248.85C505.375 248.48 504.415 248.21 503.323 247.975C502.232 247.739 501.14 247.638 499.982 247.638C497.434 247.638 495.449 248.008 494.06 248.783C492.637 249.557 491.942 250.567 491.942 251.88C491.942 253.328 492.472 254.405 493.497 255.146C494.523 255.886 496.243 256.459 498.625 256.863C499.949 257.233 501.504 257.536 503.323 257.805C505.143 258.075 506.83 258.546 508.485 259.219C510.106 259.893 511.495 260.936 512.653 262.317C513.811 263.697 514.374 265.683 514.374 268.276C514.374 272.349 513.084 275.379 510.503 277.366C507.922 279.352 504.283 280.362 499.585 280.362C496.74 280.362 494.06 280.194 491.644 279.891C489.196 279.588 486.913 279.116 484.763 278.544L485.424 268.814H491.049V272.652C491.876 273.023 492.935 273.359 494.225 273.696C495.515 274.033 496.971 274.201 498.658 274.201C500.644 274.201 502.199 273.965 503.323 273.46C504.448 272.955 505.275 272.383 505.838 271.743C506.4 271.104 506.731 270.43 506.83 269.791C506.93 269.151 506.996 268.646 506.996 268.343C506.996 267.501 506.764 266.761 506.268 266.188C505.772 265.616 505.077 265.111 504.184 264.741C503.29 264.37 502.199 264.034 500.875 263.764C499.585 263.495 498.129 263.226 496.475 262.956C492.438 262.249 489.494 261.071 487.707 259.455C485.888 257.839 484.994 255.55 484.994 252.553C484.994 250.5 485.358 248.783 486.053 247.402C486.748 246.022 487.773 244.945 489.064 244.069C490.354 243.228 491.942 242.622 493.795 242.251C495.648 241.881 497.732 241.713 500.048 241.713C501.735 241.713 503.489 241.847 505.408 242.083C507.294 242.319 509.543 242.756 512.124 243.396L511.529 252.654H506.268V252.688Z" fill="#DD6900"/>
</svg>
