<svg width="18" height="20" viewBox="0 0 18 20" fill="none" xmlns="http://www.w3.org/2000/svg">
  <path fill-rule="evenodd" clip-rule="evenodd" d="M12 0C11.4477 0 11 0.447715 11 1V2H7V1C7 0.447715 6.55228 0 6 0H5C4.44772 0 4 0.447715 4 1V2H3C1.34315 2 0 3.34315 0 5V17C0 18.6569 1.34315 20 3 20H15C16.6569 20 18 18.6569 18 17V5C18 3.34315 16.6569 2 15 2H14V1C14 0.447715 13.5523 0 13 0H12ZM3 5H15V17H3V5ZM4 9C4 9.55229 4.44772 10 5 10H13C13.5523 10 14 9.55228 14 9V8C14 7.44772 13.5523 7 13 7L5 7C4.44772 7 4 7.44772 4 8V9Z" fill="#829AB2"/>
</svg>
